<svg width="421" height="34" viewBox="0 0 421 34" fill="none" xmlns="http://www.w3.org/2000/svg">
<path d="M0.403 4.3H7.045V27.588H21.436V33H0.403V4.3ZM35.032 33.328C32.7087 33.328 30.6177 32.8497 28.759 31.893C26.9277 30.909 25.4927 29.556 24.454 27.834C23.4153 26.112 22.896 24.1577 22.896 21.971C22.896 19.7843 23.4153 17.83 24.454 16.108C25.4927 14.386 26.9277 13.0467 28.759 12.09C30.6177 11.106 32.7087 10.614 35.032 10.614C37.3553 10.614 39.4327 11.106 41.264 12.09C43.0953 13.0467 44.5303 14.386 45.569 16.108C46.6077 17.83 47.127 19.7843 47.127 21.971C47.127 24.1577 46.6077 26.112 45.569 27.834C44.5303 29.556 43.0953 30.909 41.264 31.893C39.4327 32.8497 37.3553 33.328 35.032 33.328ZM35.032 28.08C36.672 28.08 38.0113 27.5333 39.05 26.44C40.116 25.3193 40.649 23.8297 40.649 21.971C40.649 20.1123 40.116 18.6363 39.05 17.543C38.0113 16.4223 36.672 15.862 35.032 15.862C33.392 15.862 32.039 16.4223 30.973 17.543C29.907 18.6363 29.374 20.1123 29.374 21.971C29.374 23.8297 29.907 25.3193 30.973 26.44C32.039 27.5333 33.392 28.08 35.032 28.08ZM62.0622 33.328C59.7115 33.328 57.5932 32.8497 55.7072 31.893C53.8485 30.909 52.3862 29.556 51.3202 27.834C50.2815 26.112 49.7622 24.1577 49.7622 21.971C49.7622 19.7843 50.2815 17.83 51.3202 16.108C52.3862 14.386 53.8485 13.0467 55.7072 12.09C57.5932 11.106 59.7115 10.614 62.0622 10.614C64.3855 10.614 66.4082 11.106 68.1302 12.09C69.8795 13.0467 71.1505 14.427 71.9432 16.231L66.9822 18.896C65.8342 16.8733 64.1805 15.862 62.0212 15.862C60.3539 15.862 58.9735 16.4087 57.8802 17.502C56.7869 18.5953 56.2402 20.085 56.2402 21.971C56.2402 23.857 56.7869 25.3467 57.8802 26.44C58.9735 27.5333 60.3539 28.08 62.0212 28.08C64.2079 28.08 65.8615 27.0687 66.9822 25.046L71.9432 27.752C71.1505 29.5013 69.8795 30.868 68.1302 31.852C66.4082 32.836 64.3855 33.328 62.0622 33.328ZM84.9367 24.349L81.8617 27.383V33H75.4657V2.578H81.8617V19.798L91.2097 10.942H98.8357L89.6517 20.29L99.6557 33H91.9067L84.9367 24.349ZM109.232 33.328C107.401 33.328 105.611 33.1093 103.861 32.672C102.112 32.2073 100.718 31.6333 99.6794 30.95L101.811 26.358C102.795 26.9867 103.984 27.506 105.378 27.916C106.772 28.2987 108.139 28.49 109.478 28.49C112.184 28.49 113.537 27.8203 113.537 26.481C113.537 25.8523 113.168 25.4013 112.43 25.128C111.692 24.8547 110.558 24.6223 109.027 24.431C107.223 24.1577 105.734 23.8433 104.558 23.488C103.383 23.1327 102.358 22.504 101.483 21.602C100.636 20.7 100.212 19.4153 100.212 17.748C100.212 16.354 100.609 15.124 101.401 14.058C102.221 12.9647 103.397 12.1173 104.927 11.516C106.485 10.9147 108.317 10.614 110.421 10.614C111.979 10.614 113.524 10.7917 115.054 11.147C116.612 11.475 117.897 11.9397 118.908 12.541L116.776 17.092C114.836 15.9987 112.717 15.452 110.421 15.452C109.055 15.452 108.03 15.6433 107.346 16.026C106.663 16.4087 106.321 16.9007 106.321 17.502C106.321 18.1853 106.69 18.6637 107.428 18.937C108.166 19.2103 109.342 19.47 110.954 19.716C112.758 20.0167 114.234 20.3447 115.382 20.7C116.53 21.028 117.528 21.643 118.375 22.545C119.223 23.447 119.646 24.7043 119.646 26.317C119.646 27.6837 119.236 28.9 118.416 29.966C117.596 31.032 116.394 31.8657 114.808 32.467C113.25 33.041 111.392 33.328 109.232 33.328ZM151.842 10.614C154.602 10.614 156.789 11.434 158.402 13.074C160.042 14.6867 160.862 17.1193 160.862 20.372V33H154.466V21.356C154.466 19.6067 154.097 18.3083 153.359 17.461C152.648 16.5863 151.623 16.149 150.284 16.149C148.78 16.149 147.591 16.641 146.717 17.625C145.842 18.5817 145.405 20.0167 145.405 21.93V33H139.009V21.356C139.009 17.8847 137.615 16.149 134.827 16.149C133.351 16.149 132.175 16.641 131.301 17.625C130.426 18.5817 129.989 20.0167 129.989 21.93V33H123.593V10.942H129.702V13.484C130.522 12.5547 131.519 11.844 132.695 11.352C133.897 10.86 135.209 10.614 136.631 10.614C138.189 10.614 139.596 10.9283 140.854 11.557C142.111 12.1583 143.122 13.0467 143.888 14.222C144.79 13.074 145.924 12.1857 147.291 11.557C148.685 10.9283 150.202 10.614 151.842 10.614ZM166.595 10.942H172.991V33H166.595V10.942ZM169.793 7.867C168.617 7.867 167.661 7.52533 166.923 6.842C166.185 6.15867 165.816 5.31133 165.816 4.3C165.816 3.28866 166.185 2.44133 166.923 1.758C167.661 1.07466 168.617 0.732998 169.793 0.732998C170.968 0.732998 171.925 1.061 172.663 1.717C173.401 2.373 173.77 3.193 173.77 4.177C173.77 5.243 173.401 6.13133 172.663 6.842C171.925 7.52533 170.968 7.867 169.793 7.867ZM193.154 31.934C192.525 32.3987 191.746 32.754 190.817 33C189.915 33.2187 188.958 33.328 187.947 33.328C185.323 33.328 183.286 32.6583 181.838 31.319C180.416 29.9797 179.706 28.0117 179.706 25.415V16.354H176.303V11.434H179.706V6.063H186.102V11.434H191.596V16.354H186.102V25.333C186.102 26.2623 186.334 26.9867 186.799 27.506C187.291 27.998 187.974 28.244 188.849 28.244C189.86 28.244 190.721 27.9707 191.432 27.424L193.154 31.934ZM210.151 10.614C212.884 10.614 215.085 11.434 216.752 13.074C218.447 14.714 219.294 17.1467 219.294 20.372V33H212.898V21.356C212.898 19.6067 212.515 18.3083 211.75 17.461C210.985 16.5863 209.878 16.149 208.429 16.149C206.816 16.149 205.532 16.6547 204.575 17.666C203.618 18.65 203.14 20.126 203.14 22.094V33H196.744V2.578H203.14V13.238C203.987 12.3907 205.012 11.7483 206.215 11.311C207.418 10.8463 208.73 10.614 210.151 10.614ZM232.513 33.328C230.681 33.328 228.891 33.1093 227.142 32.672C225.392 32.2073 223.998 31.6333 222.96 30.95L225.092 26.358C226.076 26.9867 227.265 27.506 228.659 27.916C230.053 28.2987 231.419 28.49 232.759 28.49C235.465 28.49 236.818 27.8203 236.818 26.481C236.818 25.8523 236.449 25.4013 235.711 25.128C234.973 24.8547 233.838 24.6223 232.308 24.431C230.504 24.1577 229.014 23.8433 227.839 23.488C226.663 23.1327 225.638 22.504 224.764 21.602C223.916 20.7 223.493 19.4153 223.493 17.748C223.493 16.354 223.889 15.124 224.682 14.058C225.502 12.9647 226.677 12.1173 228.208 11.516C229.766 10.9147 231.597 10.614 233.702 10.614C235.26 10.614 236.804 10.7917 238.335 11.147C239.893 11.475 241.177 11.9397 242.189 12.541L240.057 17.092C238.116 15.9987 235.998 15.452 233.702 15.452C232.335 15.452 231.31 15.6433 230.627 16.026C229.943 16.4087 229.602 16.9007 229.602 17.502C229.602 18.1853 229.971 18.6637 230.709 18.937C231.447 19.2103 232.622 19.47 234.235 19.716C236.039 20.0167 237.515 20.3447 238.663 20.7C239.811 21.028 240.808 21.643 241.656 22.545C242.503 23.447 242.927 24.7043 242.927 26.317C242.927 27.6837 242.517 28.9 241.697 29.966C240.877 31.032 239.674 31.8657 238.089 32.467C236.531 33.041 234.672 33.328 232.513 33.328ZM246.053 18.896H257.656V24.021H246.053V18.896ZM263.139 4.3H269.781V27.588H284.172V33H263.139V4.3ZM297.768 33.328C295.445 33.328 293.354 32.8497 291.495 31.893C289.664 30.909 288.229 29.556 287.19 27.834C286.152 26.112 285.632 24.1577 285.632 21.971C285.632 19.7843 286.152 17.83 287.19 16.108C288.229 14.386 289.664 13.0467 291.495 12.09C293.354 11.106 295.445 10.614 297.768 10.614C300.092 10.614 302.169 11.106 304 12.09C305.832 13.0467 307.267 14.386 308.305 16.108C309.344 17.83 309.863 19.7843 309.863 21.971C309.863 24.1577 309.344 26.112 308.305 27.834C307.267 29.556 305.832 30.909 304 31.893C302.169 32.8497 300.092 33.328 297.768 33.328ZM297.768 28.08C299.408 28.08 300.748 27.5333 301.786 26.44C302.852 25.3193 303.385 23.8297 303.385 21.971C303.385 20.1123 302.852 18.6363 301.786 17.543C300.748 16.4223 299.408 15.862 297.768 15.862C296.128 15.862 294.775 16.4223 293.709 17.543C292.643 18.6363 292.11 20.1123 292.11 21.971C292.11 23.8297 292.643 25.3193 293.709 26.44C294.775 27.5333 296.128 28.08 297.768 28.08ZM327.546 10.614C330.279 10.614 332.479 11.434 334.147 13.074C335.841 14.714 336.689 17.1467 336.689 20.372V33H330.293V21.356C330.293 19.6067 329.91 18.3083 329.145 17.461C328.379 16.5863 327.272 16.149 325.824 16.149C324.211 16.149 322.926 16.6547 321.97 17.666C321.013 18.65 320.535 20.126 320.535 22.094V33H314.139V10.942H320.248V13.525C321.095 12.5957 322.147 11.885 323.405 11.393C324.662 10.8737 326.042 10.614 327.546 10.614ZM365.194 2.578V33H359.085V30.458C357.5 32.3713 355.204 33.328 352.197 33.328C350.12 33.328 348.234 32.8633 346.539 31.934C344.872 31.0047 343.56 29.679 342.603 27.957C341.647 26.235 341.168 24.2397 341.168 21.971C341.168 19.7023 341.647 17.707 342.603 15.985C343.56 14.263 344.872 12.9373 346.539 12.008C348.234 11.0787 350.12 10.614 352.197 10.614C355.013 10.614 357.213 11.5023 358.798 13.279V2.578H365.194ZM353.304 28.08C354.917 28.08 356.256 27.5333 357.322 26.44C358.388 25.3193 358.921 23.8297 358.921 21.971C358.921 20.1123 358.388 18.6363 357.322 17.543C356.256 16.4223 354.917 15.862 353.304 15.862C351.664 15.862 350.311 16.4223 349.245 17.543C348.179 18.6363 347.646 20.1123 347.646 21.971C347.646 23.8297 348.179 25.3193 349.245 26.44C350.311 27.5333 351.664 28.08 353.304 28.08ZM381.61 33.328C379.287 33.328 377.196 32.8497 375.337 31.893C373.506 30.909 372.071 29.556 371.032 27.834C369.993 26.112 369.474 24.1577 369.474 21.971C369.474 19.7843 369.993 17.83 371.032 16.108C372.071 14.386 373.506 13.0467 375.337 12.09C377.196 11.106 379.287 10.614 381.61 10.614C383.933 10.614 386.011 11.106 387.842 12.09C389.673 13.0467 391.108 14.386 392.147 16.108C393.186 17.83 393.705 19.7843 393.705 21.971C393.705 24.1577 393.186 26.112 392.147 27.834C391.108 29.556 389.673 30.909 387.842 31.893C386.011 32.8497 383.933 33.328 381.61 33.328ZM381.61 28.08C383.25 28.08 384.589 27.5333 385.628 26.44C386.694 25.3193 387.227 23.8297 387.227 21.971C387.227 20.1123 386.694 18.6363 385.628 17.543C384.589 16.4223 383.25 15.862 381.61 15.862C379.97 15.862 378.617 16.4223 377.551 17.543C376.485 18.6363 375.952 20.1123 375.952 21.971C375.952 23.8297 376.485 25.3193 377.551 26.44C378.617 27.5333 379.97 28.08 381.61 28.08ZM411.387 10.614C414.121 10.614 416.321 11.434 417.988 13.074C419.683 14.714 420.53 17.1467 420.53 20.372V33H414.134V21.356C414.134 19.6067 413.752 18.3083 412.986 17.461C412.221 16.5863 411.114 16.149 409.665 16.149C408.053 16.149 406.768 16.6547 405.811 17.666C404.855 18.65 404.376 20.126 404.376 22.094V33H397.98V10.942H404.089V13.525C404.937 12.5957 405.989 11.885 407.246 11.393C408.504 10.8737 409.884 10.614 411.387 10.614Z" fill="url(#paint0_linear)"/>
<defs>
<linearGradient id="paint0_linear" x1="55.1194" y1="19.8456" x2="539.053" y2="19.8456" gradientUnits="userSpaceOnUse">
<stop stop-color="#254A93"/>
<stop offset="1" stop-color="#2490F4"/>
</linearGradient>
</defs>
</svg>
