<svg width="37" height="36" viewBox="0 0 37 36" fill="none" xmlns="http://www.w3.org/2000/svg">
<path fill-rule="evenodd" clip-rule="evenodd" d="M32.375 36C33.6016 36 34.778 35.5259 35.6454 34.682C36.5127 33.8381 37 32.6935 37 31.5V4.5C37 3.30653 36.5127 2.16193 35.6454 1.31802C34.778 0.474106 33.6016 0 32.375 0L4.625 0C3.39837 0 2.22199 0.474106 1.35463 1.31802C0.487278 2.16193 0 3.30653 0 4.5V31.5C0 32.6935 0.487278 33.8381 1.35463 34.682C2.22199 35.5259 3.39837 36 4.625 36L32.375 36ZM19.3186 12.0465C19.5357 11.8353 19.6577 11.5487 19.6577 11.25C19.6577 10.9513 19.5357 10.6647 19.3186 10.4535C19.1015 10.2423 18.807 10.1236 18.5 10.1236C18.193 10.1236 17.8985 10.2423 17.6814 10.4535L10.7439 17.2035C10.6362 17.308 10.5508 17.4321 10.4925 17.5688C10.4342 17.7055 10.4042 17.852 10.4042 18C10.4042 18.148 10.4342 18.2945 10.4925 18.4312C10.5508 18.5679 10.6362 18.692 10.7439 18.7965L17.6814 25.5465C17.7889 25.6511 17.9165 25.7341 18.057 25.7907C18.1974 25.8473 18.348 25.8764 18.5 25.8764C18.652 25.8764 18.8026 25.8473 18.943 25.7907C19.0835 25.7341 19.2111 25.6511 19.3186 25.5465C19.4261 25.4419 19.5114 25.3177 19.5696 25.1811C19.6278 25.0444 19.6577 24.8979 19.6577 24.75C19.6577 24.6021 19.6278 24.4556 19.5696 24.3189C19.5114 24.1823 19.4261 24.0581 19.3186 23.9535L14.3537 19.125L25.4375 19.125C25.7442 19.125 26.0383 19.0065 26.2551 18.7955C26.4719 18.5845 26.5938 18.2984 26.5938 18C26.5938 17.7016 26.4719 17.4155 26.2551 17.2045C26.0383 16.9935 25.7442 16.875 25.4375 16.875L14.3537 16.875L19.3186 12.0465Z" fill="url(#paint0_linear)"/>
<defs>
<linearGradient id="paint0_linear" x1="31.9639" y1="16.6711" x2="-9.96944" y2="16.6711" gradientUnits="userSpaceOnUse">
<stop stop-color="#254A93"/>
<stop offset="1" stop-color="#2490F4"/>
</linearGradient>
</defs>
</svg>
