<svg width="37" height="36" viewBox="0 0 37 36" fill="none" xmlns="http://www.w3.org/2000/svg">
<path fill-rule="evenodd" clip-rule="evenodd" d="M4.625 0C3.39837 0 2.22199 0.474106 1.35463 1.31802C0.487275 2.16193 0 3.30653 0 4.5L0 31.5C0 32.6935 0.487275 33.8381 1.35463 34.682C2.22199 35.5259 3.39837 36 4.625 36H32.375C33.6016 36 34.778 35.5259 35.6454 34.682C36.5127 33.8381 37 32.6935 37 31.5V4.5C37 3.30653 36.5127 2.16193 35.6454 1.31802C34.778 0.474106 33.6016 0 32.375 0L4.625 0ZM17.6814 23.9535C17.4643 24.1647 17.3423 24.4513 17.3423 24.75C17.3423 25.0487 17.4643 25.3353 17.6814 25.5465C17.8985 25.7577 18.193 25.8764 18.5 25.8764C18.807 25.8764 19.1015 25.7577 19.3186 25.5465L26.2561 18.7965C26.3638 18.692 26.4492 18.5679 26.5075 18.4312C26.5658 18.2945 26.5958 18.148 26.5958 18C26.5958 17.852 26.5658 17.7055 26.5075 17.5688C26.4492 17.4321 26.3638 17.308 26.2561 17.2035L19.3186 10.4535C19.2111 10.3489 19.0835 10.2659 18.943 10.2093C18.8026 10.1527 18.652 10.1236 18.5 10.1236C18.348 10.1236 18.1974 10.1527 18.057 10.2093C17.9165 10.2659 17.7889 10.3489 17.6814 10.4535C17.5739 10.5581 17.4886 10.6823 17.4304 10.8189C17.3722 10.9556 17.3423 11.1021 17.3423 11.25C17.3423 11.3979 17.3722 11.5444 17.4304 11.6811C17.4886 11.8177 17.5739 11.9419 17.6814 12.0465L22.6463 16.875H11.5625C11.2558 16.875 10.9617 16.9935 10.7449 17.2045C10.5281 17.4155 10.4062 17.7016 10.4062 18C10.4062 18.2984 10.5281 18.5845 10.7449 18.7955C10.9617 19.0065 11.2558 19.125 11.5625 19.125H22.6463L17.6814 23.9535Z" fill="url(#paint0_linear)"/>
<defs>
<linearGradient id="paint0_linear" x1="5.03611" y1="19.3289" x2="46.9694" y2="19.3289" gradientUnits="userSpaceOnUse">
<stop stop-color="#254A93"/>
<stop offset="1" stop-color="#2490F4"/>
</linearGradient>
</defs>
</svg>
